<?xml version="1.0" encoding="UTF-8"?>
<svg width="34px" height="45px" viewBox="0 0 34 45" version="1.1" xmlns="http://www.w3.org/2000/svg" xmlns:xlink="http://www.w3.org/1999/xlink">
    <!-- Generator: Sketch 56.3 (81716) - https://sketch.com -->
    <title>wind-11</title>
    <desc>Created with Sketch.</desc>
    <g id="Page-1" stroke="none" stroke-width="1" fill="none" fill-rule="evenodd">
        <g id="Artboard" transform="translate(-323.000000, -357.000000)" stroke="#000000" stroke-width="2">
            <g id="風力11" transform="translate(324.000000, 358.000000)">
                <path d="M16,7.94091677 L16,43" id="Path-9"></path>
                <path d="M0,0.348483532 L16,7.94091677" id="Path-10"></path>
                <path d="M5,10 L16,15" id="Path-10"></path>
                <path d="M5,17 L16,22" id="Path-10"></path>
                <path d="M5,24 L16,29" id="Path-10"></path>
                <path d="M5,31 L16,36" id="Path-10"></path>
                <path d="M16,0 L32,7.59243323" id="Path-10" transform="translate(24.000000, 3.796217) scale(-1, 1) translate(-24.000000, -3.796217) "></path>
                <path d="M16,9.65151647 L27,14.6515165" id="Path-10" transform="translate(21.500000, 12.151516) scale(-1, 1) translate(-21.500000, -12.151516) "></path>
                <path d="M16,16.6515165 L27,21.6515165" id="Path-10" transform="translate(21.500000, 19.151516) scale(-1, 1) translate(-21.500000, -19.151516) "></path>
                <path d="M16,23.6515165 L27,28.6515165" id="Path-10" transform="translate(21.500000, 26.151516) scale(-1, 1) translate(-21.500000, -26.151516) "></path>
                <path d="M16,30.6515165 L27,35.6515165" id="Path-10" transform="translate(21.500000, 33.151516) scale(-1, 1) translate(-21.500000, -33.151516) "></path>
                <path d="M16,37.6515165 L27,42.6515165" id="Path-10" transform="translate(21.500000, 40.151516) scale(-1, 1) translate(-21.500000, -40.151516) "></path>
            </g>
        </g>
    </g>
</svg>