<?xml version="1.0" encoding="UTF-8"?>
<svg width="34px" height="45px" viewBox="0 0 34 45" version="1.1" xmlns="http://www.w3.org/2000/svg" xmlns:xlink="http://www.w3.org/1999/xlink">
    <!-- Generator: Sketch 56.3 (81716) - https://sketch.com -->
    <title>wind-05</title>
    <desc>Created with Sketch.</desc>
    <g id="Page-1" stroke="none" stroke-width="1" fill="none" fill-rule="evenodd">
        <g id="Artboard" transform="translate(-323.000000, -299.000000)" stroke="#000000" stroke-width="2">
            <g id="風力5" transform="translate(339.000000, 300.000000)">
                <path d="M1,7.94091677 L1,43" id="Path-9"></path>
                <path d="M1,0 L17,7.59243323" id="Path-10" transform="translate(9.000000, 3.796217) scale(-1, 1) translate(-9.000000, -3.796217) "></path>
                <path d="M1,9.65151647 L12,14.6515165" id="Path-10" transform="translate(6.500000, 12.151516) scale(-1, 1) translate(-6.500000, -12.151516) "></path>
                <path d="M1,16.6515165 L12,21.6515165" id="Path-10" transform="translate(6.500000, 19.151516) scale(-1, 1) translate(-6.500000, -19.151516) "></path>
                <path d="M1,23.6515165 L12,28.6515165" id="Path-10" transform="translate(6.500000, 26.151516) scale(-1, 1) translate(-6.500000, -26.151516) "></path>
                <path d="M1,30.6515165 L12,35.6515165" id="Path-10" transform="translate(6.500000, 33.151516) scale(-1, 1) translate(-6.500000, -33.151516) "></path>
            </g>
        </g>
    </g>
</svg>